<?xml version="1.0" standalone="no"?>
<!DOCTYPE svg PUBLIC "-//W3C//DTD SVG 20010904//EN"
 "http://www.w3.org/TR/2001/REC-SVG-20010904/DTD/svg10.dtd">
<svg version="1.0" xmlns="http://www.w3.org/2000/svg"
 width="300.000000pt" height="300.000000pt" viewBox="0 0 300.000000 300.000000"
 preserveAspectRatio="xMidYMid meet">
<metadata>
Created by potrace 1.10, written by Peter Selinger 2001-2011
</metadata>
<g transform="translate(0.000000,300.000000) scale(0.100000,-0.100000)"
fill="#f4cccc" stroke="none">
<path d="M1350 2550 c0 -5 8 -7 18 -4 14 5 14 4 2 -4 -9 -7 -19 -7 -26 -1 -10
8 -41 7 -89 -5 -11 -2 -20 -5 -20 -6 0 -1 -13 -4 -30 -6 -16 -3 -32 -8 -35
-12 -3 -4 -9 -7 -15 -7 -22 -1 -85 -27 -85 -36 0 -5 -3 -8 -7 -7 -19 4 -122
-48 -140 -70 -7 -9 -13 -12 -13 -8 0 10 -72 -46 -137 -108 -29 -27 -50 -53
-46 -59 3 -6 2 -7 -4 -4 -10 6 -63 -51 -107 -115 -49 -73 -130 -244 -121 -257
3 -5 1 -11 -4 -13 -6 -1 -11 -14 -13 -28 -2 -14 -7 -30 -10 -36 -13 -20 -19
-96 -9 -108 6 -8 6 -17 -1 -26 -8 -12 -9 -12 -4 3 3 9 2 17 -3 17 -4 0 -9 -56
-10 -125 -2 -100 1 -130 15 -152 15 -27 15 -27 -1 -8 -16 19 -17 19 -10 -13 4
-19 8 -43 10 -55 5 -27 13 -62 15 -62 1 0 4 -13 6 -30 3 -16 9 -32 15 -33 5
-2 7 -8 4 -13 -10 -15 62 -165 123 -259 55 -83 292 -314 292 -284 0 4 6 1 13
-8 23 -29 221 -122 243 -114 9 3 12 1 9 -4 -5 -8 28 -15 38 -7 2 1 11 -3 19
-10 8 -7 33 -15 57 -18 23 -3 55 -8 69 -11 21 -4 24 -3 12 5 -9 7 -10 11 -3
11 6 0 15 -5 19 -11 6 -11 257 -7 314 5 38 8 65 14 65 16 0 1 11 3 25 6 65 11
290 116 290 136 0 6 3 8 6 5 17 -16 210 166 282 265 45 62 103 174 94 182 -3
4 -1 6 5 6 11 0 49 95 57 140 3 14 5 25 6 25 2 0 8 27 16 65 3 14 8 86 11 161
4 117 3 141 -12 165 -16 27 -16 28 0 9 17 -20 17 -20 11 7 -3 14 -8 46 -11 69
-3 24 -11 49 -17 56 -6 7 -8 13 -5 13 23 0 -68 206 -141 320 -54 83 -292 315
-292 284 0 -4 -6 -1 -12 8 -22 27 -222 123 -237 113 -5 -3 -11 -1 -13 4 -1 6
-16 12 -33 15 -16 2 -30 5 -30 6 0 2 -21 7 -65 17 -46 10 -350 13 -350 3z
m295 -10 c3 -6 -1 -7 -9 -4 -18 7 -21 14 -7 14 6 0 13 -4 16 -10z m1 -14 c28
-3 59 -9 69 -12 13 -5 16 -4 11 4 -4 7 -2 12 3 12 6 0 11 -6 11 -14 0 -9 7
-13 20 -11 11 2 20 -1 20 -7 0 -5 6 -8 14 -5 7 3 19 0 25 -6 6 -6 11 -7 11 -1
0 5 3 5 8 -1 6 -9 103 -53 127 -58 5 -1 16 -8 23 -15 8 -7 18 -10 23 -7 5 4 9
1 9 -4 0 -6 6 -11 14 -11 8 0 16 -3 18 -7 3 -9 74 -63 81 -63 3 0 19 -13 37
-30 33 -30 57 -40 44 -17 -4 6 2 3 14 -7 12 -11 22 -24 22 -30 0 -6 -7 -2 -15
8 -8 11 -15 15 -15 9 0 -16 28 -36 39 -28 6 3 8 0 5 -8 -3 -8 9 -29 26 -46 16
-18 30 -35 30 -38 0 -7 54 -78 63 -81 4 -2 7 -10 7 -18 0 -8 5 -14 11 -14 5 0
8 -4 4 -9 -3 -5 0 -15 7 -23 7 -7 14 -18 15 -23 5 -24 49 -121 58 -127 6 -4 7
-8 3 -8 -4 0 -2 -15 4 -32 5 -18 10 -39 11 -45 0 -7 7 -13 16 -13 13 0 13 -2
2 -9 -7 -5 -11 -13 -7 -19 17 -28 24 -258 11 -362 -4 -30 -8 -63 -8 -72 -1
-10 -5 -18 -9 -18 -4 0 -5 -9 -3 -20 2 -11 -1 -20 -7 -20 -5 0 -8 -6 -5 -14 3
-7 0 -19 -6 -25 -6 -6 -7 -11 -1 -11 5 0 5 -3 -1 -8 -11 -8 -57 -110 -58 -129
0 -7 -4 -13 -7 -13 -4 0 -13 -15 -21 -33 -7 -17 -15 -34 -18 -37 -11 -9 -61
-79 -61 -84 0 -4 -27 -35 -87 -97 -38 -39 -94 -89 -100 -89 -5 0 -74 -51 -83
-61 -3 -3 -20 -11 -37 -18 -18 -8 -33 -17 -33 -21 0 -3 -6 -7 -12 -7 -20 -1
-122 -47 -130 -58 -4 -5 -8 -7 -8 -3 0 4 -15 2 -32 -4 -18 -5 -39 -10 -45 -11
-7 0 -13 -3 -13 -7 0 -3 -8 -6 -17 -7 -10 0 -43 -4 -73 -8 -107 -14 -316 -7
-365 11 -14 6 -16 4 -11 -7 4 -8 1 -6 -7 4 -9 10 -18 18 -21 18 -3 0 -19 2
-36 5 -16 4 -32 5 -36 4 -4 -1 -10 2 -13 7 -7 10 -111 55 -128 56 -7 0 -13 4
-13 7 0 4 -15 13 -32 21 -18 7 -35 15 -38 18 -12 14 -79 61 -87 61 -4 0 -13 8
-20 18 -6 11 -32 29 -58 41 -26 12 -45 25 -41 28 3 3 14 0 23 -8 16 -12 -1 9
-64 78 -13 13 -23 26 -23 29 0 5 -50 75 -61 84 -3 3 -11 20 -18 38 -8 17 -17
32 -21 32 -3 0 -7 6 -7 13 -1 19 -47 121 -58 129 -6 5 -6 8 0 8 5 0 4 5 -2 11
-6 6 -9 18 -6 25 3 8 1 14 -5 14 -6 0 -9 8 -8 18 2 9 -4 23 -13 30 -10 8 -10
11 -2 6 11 -5 13 -3 7 11 -24 64 -24 366 0 430 6 14 4 16 -7 11 -11 -6 -10 -4
1 6 15 13 20 26 26 63 1 11 3 21 3 23 1 1 1 5 0 8 0 4 3 10 8 13 7 6 52 104
56 126 1 5 8 16 15 23 7 8 10 18 7 23 -4 5 -1 9 4 9 6 0 11 6 11 14 0 8 3 16
8 18 8 4 62 74 62 82 0 14 173 186 187 186 7 0 78 54 81 63 2 4 10 7 18 7 8 0
14 5 14 11 0 5 4 8 9 4 5 -3 15 0 23 7 7 7 18 14 23 15 24 5 121 49 127 58 5
6 8 6 8 1 0 -6 5 -5 11 1 6 6 18 9 25 6 8 -3 14 0 14 5 0 6 9 9 20 7 11 -2 20
-1 20 3 0 4 8 8 18 9 29 2 137 14 139 16 3 4 180 -1 229 -7z m-881 -285 c-3
-6 -11 -11 -17 -11 -6 0 -6 6 2 15 14 17 26 13 15 -4z m1782 -743 c-3 -8 -6
-5 -6 6 -1 11 2 17 5 13 3 -3 4 -12 1 -19z m-6 -141 c-10 -9 -11 -8 -5 6 3 10
9 15 12 12 3 -3 0 -11 -7 -18z m-291 -597 c0 -5 -5 -10 -11 -10 -5 0 -7 5 -4
10 3 6 8 10 11 10 2 0 4 -4 4 -10z m-605 -300 c-3 -5 -12 -10 -18 -10 -7 0 -6
4 3 10 19 12 23 12 15 0z"/>
<path d="M1283 2283 c-22 -8 -14 -34 24 -77 50 -56 75 -69 34 -18 -18 23 -36
42 -40 42 -4 0 -7 9 -8 21 -1 15 2 19 13 15 9 -3 17 -6 19 -6 2 0 13 -15 24
-34 12 -18 31 -36 42 -39 21 -6 21 -5 3 12 -11 10 -34 34 -52 54 -33 37 -37
39 -59 30z"/>
<path d="M1678 2276 c-51 -52 -77 -86 -65 -86 14 0 47 35 47 50 0 9 31 30 44
30 18 0 1 -36 -31 -66 -20 -19 -33 -37 -30 -41 8 -7 86 77 87 93 0 11 -20 34
-31 34 -4 0 -14 -6 -21 -14z"/>
<path d="M1491 2262 c-1 -7 -5 -11 -10 -8 -5 3 -20 -3 -32 -14 -13 -11 -20
-19 -16 -20 4 0 3 -10 -4 -21 -8 -16 -8 -20 1 -14 6 4 15 18 20 31 5 13 16 25
25 25 8 1 21 2 28 3 17 3 48 -24 58 -51 5 -13 15 -23 24 -23 13 0 12 3 -2 19
-10 11 -26 31 -36 46 -11 14 -25 24 -32 21 -8 -3 -16 0 -19 7 -3 9 -5 8 -5 -1z"/>
<path d="M1640 2140 c0 -5 5 -10 11 -10 5 0 8 -4 4 -9 -3 -5 5 -17 17 -25 12
-9 19 -16 14 -16 -5 0 -1 -11 8 -25 l16 -25 -215 0 c-124 0 -215 4 -215 9 0 5
3 11 8 13 13 6 73 88 64 88 -20 0 -92 -103 -80 -115 3 -3 108 -4 233 -3 204 3
227 5 214 18 -8 9 -15 22 -17 29 -3 14 -51 81 -58 81 -2 0 -4 -4 -4 -10z"/>
<path d="M1243 1930 c1 -12 -12 -16 -61 -20 -57 -5 -81 -17 -82 -42 0 -22 36
-38 85 -38 38 0 54 -4 59 -15 3 -9 0 -15 -9 -15 -7 0 -20 -7 -29 -15 -8 -9
-18 -16 -21 -15 -26 1 -36 -3 -45 -19 -16 -32 -2 -53 34 -48 38 5 91 26 83 33
-3 3 -21 0 -40 -7 -36 -13 -73 -6 -62 11 3 5 25 18 49 29 49 21 59 32 50 55
-5 12 -20 16 -65 16 -46 0 -59 3 -59 15 0 8 -5 15 -11 15 -6 0 -4 7 5 15 9 10
34 15 69 15 39 0 56 4 61 15 4 12 24 14 98 12 l93 -2 3 -187 c1 -104 -1 -188
-5 -188 -5 0 -24 10 -43 22 -19 12 -37 22 -40 23 -3 0 -17 9 -32 18 -25 17
-28 17 -60 1 -18 -9 -36 -22 -40 -28 -11 -16 -40 17 -33 37 4 9 19 19 35 22
25 5 64 35 46 35 -12 0 -96 -42 -102 -51 -9 -16 6 -48 27 -54 12 -4 34 2 55
14 44 26 62 26 88 2 24 -22 92 -61 106 -61 6 0 10 80 10 208 l0 207 -110 0
c-92 0 -109 -2 -107 -15z"/>
<path d="M1540 1737 l0 -208 22 7 c37 11 86 47 99 72 8 14 15 18 19 12 4 -6
13 -12 21 -14 8 -1 29 -10 47 -20 38 -20 68 -14 78 16 7 25 -10 41 -68 65 -34
13 -37 18 -32 42 4 14 3 23 -2 18 -28 -26 -1 -73 46 -80 32 -5 48 -31 31 -51
-11 -13 -19 -11 -68 15 l-56 30 -21 -24 c-12 -13 -38 -34 -58 -46 l-38 -23 -1
29 c-1 40 -1 271 0 316 l1 37 89 0 c70 0 90 -3 95 -15 4 -11 21 -15 65 -15 61
0 72 -8 63 -42 -3 -13 -18 -18 -66 -21 l-61 -3 62 -2 c45 -1 66 2 77 14 36 36
4 64 -75 64 -50 0 -59 3 -59 18 0 15 -12 17 -105 17 l-105 0 0 -208z"/>
<path d="M1739 1814 c6 -12 32 -33 58 -46 26 -14 49 -30 51 -36 6 -18 -32 -19
-76 0 -24 10 -40 13 -37 7 9 -14 53 -31 91 -36 22 -3 33 1 38 12 10 27 -9 49
-61 69 -26 11 -54 27 -61 35 -11 14 -12 13 -3 -5z"/>
<path d="M1267 1724 c-6 -10 9 -42 16 -34 3 3 1 14 -3 24 -3 11 -9 15 -13 10z"/>
<path d="M1333 1400 c-13 -5 -23 -7 -23 -3 0 10 -41 -30 -52 -50 -13 -25 -18
-87 -7 -87 5 0 8 -3 8 -7 -1 -8 0 -12 6 -30 2 -5 6 -18 10 -30 4 -13 11 -23
16 -23 5 0 9 -6 9 -14 0 -7 11 -25 24 -39 13 -14 21 -28 18 -31 -3 -3 0 -6 6
-6 7 0 12 -5 12 -10 0 -6 8 -22 17 -37 10 -14 18 -31 19 -37 1 -6 5 -19 9 -28
9 -23 -28 -58 -54 -51 -22 6 -35 36 -29 69 2 16 -3 19 -37 19 -38 0 -40 -1
-40 -32 -1 -18 3 -33 7 -33 4 0 8 14 8 31 0 26 3 30 22 27 16 -2 24 -12 29
-38 12 -58 57 -77 91 -37 30 33 18 72 -55 184 -88 135 -104 188 -72 237 32 49
122 59 157 18 23 -26 31 -82 13 -82 -8 0 -18 -1 -22 -2 -4 -2 -11 12 -15 29
-10 40 -49 54 -76 29 -27 -23 -28 -90 -2 -116 11 -11 20 -23 20 -26 0 -3 14
-26 30 -51 73 -107 93 -164 78 -216 -14 -48 -28 -59 -75 -60 -72 -1 -92 6
-102 35 -11 31 -32 39 -24 9 10 -39 41 -55 108 -57 61 -2 66 -1 85 26 20 28
29 96 18 130 -11 33 -28 71 -38 83 -19 23 -105 163 -108 177 -6 24 20 70 39
70 21 0 39 -28 39 -60 0 -18 5 -21 38 -18 39 3 39 4 30 72 -3 21 -38 58 -59
62 -8 2 -23 5 -34 8 -11 3 -30 1 -42 -4z"/>
<path d="M1530 1392 c-6 -2 -9 -27 -8 -55 l1 -52 6 45 6 45 77 3 c72 3 78 1
101 -24 28 -30 30 -50 29 -281 -1 -184 -13 -202 -128 -203 l-72 0 -7 68 c-3
37 -4 112 -1 167 2 55 1 118 -4 140 -4 25 -8 -36 -8 -163 -1 -112 1 -209 4
-215 3 -8 31 -12 83 -11 97 1 139 22 132 67 0 4 3 7 7 7 5 0 9 77 10 170 2
132 -1 170 -10 170 -9 0 -9 3 2 10 12 7 11 15 -8 54 -13 25 -32 48 -43 51 -22
7 -152 12 -169 7z"/>
<path d="M1598 1333 c-15 -19 -16 -360 -2 -386 7 -13 9 45 6 184 l-4 202 31
-5 c20 -3 30 -1 28 6 -5 16 -45 15 -59 -1z"/>
<path d="M1678 1132 c1 -107 4 -197 6 -199 8 -8 12 70 10 197 -2 123 -7 186
-16 195 -2 2 -2 -85 0 -193z"/>
<path d="M1620 920 l-25 -8 27 -1 c15 -1 30 4 33 9 7 11 0 11 -35 0z"/>
<path d="M161 1894 c0 -11 3 -14 6 -6 3 7 2 16 -1 19 -3 4 -6 -2 -5 -13z"/>
</g>
</svg>
