<?xml version="1.0" standalone="no"?>
<!DOCTYPE svg PUBLIC "-//W3C//DTD SVG 20010904//EN"
 "http://www.w3.org/TR/2001/REC-SVG-20010904/DTD/svg10.dtd">
<svg version="1.0" xmlns="http://www.w3.org/2000/svg"
 width="53.87" height="53.87" viewBox="0 0 900.000000 900.000000"
 preserveAspectRatio="xMidYMid meet">
<metadata>
Created by potrace 1.10, written by Peter Selinger 2001-2011
</metadata>
<g transform="translate(0.000000,900.000000) scale(0.100000,-0.100000)"
fill="#f4cccc" stroke="none">
<path d="M4140 7659 c-25 -5 -79 -13 -120 -18 -157 -20 -441 -88 -575 -138
-22 -8 -58 -22 -80 -30 -22 -8 -56 -22 -75 -30 -19 -8 -48 -21 -65 -28 -59
-25 -301 -146 -330 -165 -16 -11 -39 -24 -50 -30 -145 -77 -393 -269 -578
-449 -188 -182 -422 -477 -507 -636 -6 -11 -19 -33 -30 -50 -44 -70 -180 -355
-224 -472 -46 -124 -62 -174 -91 -283 -9 -36 -23 -88 -31 -116 -8 -28 -14 -59
-14 -70 0 -10 -6 -50 -14 -89 -37 -177 -46 -290 -46 -565 0 -275 9 -388 46
-565 8 -38 14 -79 14 -89 0 -11 7 -44 16 -75 8 -31 22 -81 30 -111 42 -155 49
-177 89 -280 43 -110 62 -153 139 -310 37 -74 76 -148 86 -165 11 -16 24 -39
30 -50 85 -159 319 -454 507 -636 185 -180 433 -372 578 -449 11 -6 34 -19 50
-30 70 -44 355 -180 473 -224 123 -46 173 -62 282 -91 36 -9 88 -23 116 -31
28 -8 59 -14 70 -14 10 0 51 -6 89 -14 177 -37 290 -46 565 -46 275 0 388 9
565 46 39 8 79 14 89 14 11 0 42 6 70 14 28 8 80 22 116 31 79 21 152 43 203
61 79 29 123 46 157 61 19 8 49 21 65 28 59 25 301 146 330 165 17 11 39 24
50 30 145 77 393 269 578 449 188 182 422 477 507 636 6 11 19 34 30 50 19 31
142 276 165 330 7 17 19 46 27 65 15 33 24 56 61 155 15 40 38 117 62 210 8
28 21 75 29 106 9 31 16 64 16 75 0 10 6 51 14 89 37 177 46 290 46 565 0 275
-9 388 -46 565 -8 39 -14 79 -14 89 0 11 -6 42 -14 70 -8 28 -22 80 -31 116
-21 79 -43 152 -61 203 -29 79 -46 123 -61 157 -8 19 -21 49 -28 65 -25 59
-146 301 -165 330 -11 17 -24 39 -30 50 -85 159 -319 454 -507 636 -185 180
-433 372 -578 449 -11 6 -33 19 -50 30 -29 19 -271 140 -330 165 -16 7 -46 20
-65 28 -35 15 -92 37 -160 62 -34 12 -88 28 -200 59 -30 8 -80 22 -111 30 -31
9 -64 16 -75 16 -10 0 -50 6 -89 14 -182 38 -287 46 -580 45 -159 -1 -310 -5
-335 -10z m618 -64 c81 -8 174 -20 207 -27 33 -6 83 -14 110 -18 64 -9 146
-29 313 -76 63 -18 108 -34 255 -90 126 -49 344 -158 467 -233 231 -143 391
-271 585 -466 140 -140 178 -184 285 -325 73 -98 106 -145 171 -250 108 -176
206 -384 294 -630 34 -96 94 -326 105 -405 4 -27 12 -77 18 -110 21 -105 42
-349 42 -475 0 -126 -21 -370 -42 -475 -6 -33 -14 -82 -18 -110 -9 -64 -29
-146 -76 -312 -19 -66 -31 -101 -92 -258 -52 -135 -152 -337 -231 -465 -143
-231 -271 -391 -466 -585 -140 -140 -184 -178 -325 -285 -98 -73 -145 -106
-250 -171 -128 -79 -330 -179 -465 -231 -157 -61 -192 -73 -257 -92 -167 -47
-249 -67 -313 -76 -27 -4 -77 -12 -110 -18 -105 -21 -349 -42 -475 -42 -126 0
-370 21 -475 42 -33 6 -82 14 -110 18 -64 9 -146 29 -312 76 -65 19 -126 40
-255 90 -142 55 -339 154 -468 233 -105 65 -152 98 -250 171 -238 180 -450
393 -631 635 -64 85 -95 131 -160 235 -78 126 -184 340 -232 465 -8 22 -23 60
-32 85 -30 77 -42 113 -60 175 -43 153 -66 246 -75 310 -4 28 -12 77 -18 110
-21 105 -42 349 -42 475 0 126 21 370 42 475 6 33 14 83 18 110 11 81 72 313
106 408 73 199 109 283 183 427 58 113 73 140 99 182 9 15 35 55 56 90 47 75
195 273 257 343 140 159 336 340 504 466 85 64 131 95 235 160 156 96 366 197
550 264 19 7 53 19 75 28 95 35 326 95 410 107 28 4 77 12 110 18 204 40 510
51 743 27z"/>
<path d="M3859 6835 c-36 -20 -55 -66 -38 -97 13 -25 111 -141 190 -225 27
-28 49 -55 49 -60 0 -5 -14 -22 -31 -39 -79 -75 -239 -330 -223 -355 3 -5 300
-9 675 -9 606 0 669 2 669 16 0 14 -15 47 -41 94 -5 8 -14 26 -19 39 -20 45
-92 141 -147 196 -37 36 -41 54 -15 76 9 8 49 51 88 95 157 175 161 182 143
225 -14 35 -61 63 -89 54 -11 -4 -73 -66 -137 -138 -64 -73 -127 -142 -139
-154 l-21 -23 -44 23 c-30 16 -47 33 -53 53 -24 80 -66 126 -139 153 -100 38
-234 -43 -257 -154 -7 -37 -65 -70 -91 -51 -9 6 -66 68 -127 137 -103 117
-149 160 -169 159 -4 -1 -20 -7 -34 -15z"/>
<path d="M3740 5805 c-6 -15 -10 -33 -10 -40 0 -8 -5 -25 -11 -39 -12 -25 -12
-25 -180 -28 l-169 -3 -25 -30 c-42 -52 -29 -125 28 -157 14 -8 80 -15 182
-18 l159 -5 9 -39 c9 -35 7 -41 -13 -56 -13 -10 -49 -28 -79 -41 -111 -45
-186 -83 -203 -103 -26 -31 -23 -97 5 -129 19 -23 31 -27 76 -27 29 0 65 6 79
13 15 8 44 21 65 30 20 9 52 24 70 32 44 21 62 12 82 -43 33 -92 32 -94 -75
-141 -193 -84 -219 -102 -220 -149 0 -28 16 -60 43 -87 26 -24 108 -26 152 -4
17 9 48 24 70 34 22 9 52 24 67 31 14 8 33 14 41 14 8 0 20 7 27 15 20 25 39
18 83 -31 23 -26 68 -66 99 -90 86 -67 223 -133 240 -116 5 5 7 282 6 618 l-3
609 -293 3 -292 2 -10 -25z"/>
<path d="M4617 5823 c-4 -3 -7 -282 -7 -620 0 -484 3 -613 13 -613 22 0 125
43 172 73 53 32 105 76 155 129 31 32 63 58 73 58 9 0 47 -14 84 -31 38 -17
84 -38 103 -46 19 -9 46 -22 60 -29 37 -18 91 -26 125 -16 35 10 75 64 75 101
-1 49 -27 67 -225 156 -16 7 -51 23 -77 35 l-47 21 14 32 c40 93 46 107 55
112 6 4 32 -4 58 -16 26 -12 63 -29 82 -37 19 -8 47 -21 62 -29 14 -7 50 -13
79 -13 45 0 57 4 76 27 28 32 31 98 5 129 -17 22 -80 53 -229 115 -46 19 -85
41 -88 49 -2 8 -1 29 3 45 l8 30 170 5 c93 3 178 9 189 15 58 27 74 107 31
160 l-24 30 -179 3 c-192 3 -203 6 -203 58 0 13 -5 35 -12 49 l-11 25 -292 0
c-160 0 -295 -3 -298 -7z"/>
<path d="M3990 4191 c-25 -4 -64 -17 -87 -29 -50 -26 -119 -104 -141 -158 -21
-51 -23 -244 -3 -294 30 -73 82 -178 106 -214 14 -20 25 -39 25 -42 0 -3 20
-32 45 -64 25 -32 45 -61 45 -64 0 -2 19 -33 43 -68 24 -35 46 -70 50 -78 4
-8 16 -28 27 -45 11 -16 36 -64 56 -105 34 -67 38 -83 38 -157 1 -73 -2 -85
-22 -105 -32 -32 -131 -32 -166 1 -29 27 -46 83 -46 150 0 75 -20 91 -113 91
-51 0 -79 -5 -96 -17 -23 -16 -24 -19 -17 -110 11 -165 87 -279 216 -324 67
-23 242 -27 293 -5 33 13 87 68 87 88 0 6 16 28 35 49 27 30 35 48 35 77 0 20
5 57 11 81 7 31 6 61 -2 100 -11 54 -60 185 -85 226 -7 11 -21 36 -31 55 -10
19 -41 68 -68 108 -28 41 -54 81 -60 90 -5 9 -22 33 -37 53 -16 20 -28 40 -28
44 0 4 -13 24 -28 44 -16 20 -32 43 -35 51 -4 8 -16 29 -27 45 -11 17 -22 37
-26 45 -3 8 -12 30 -20 48 -8 18 -14 60 -14 94 0 79 26 124 76 134 53 10 113
-2 140 -27 20 -19 24 -32 24 -86 0 -99 4 -103 110 -103 81 0 90 2 101 21 17
32 2 184 -22 236 -26 55 -91 118 -145 142 -49 22 -175 33 -244 22z"/>
<path d="M4586 4161 c-15 -17 -16 -80 -16 -777 0 -417 3 -770 6 -784 12 -46
27 -50 193 -50 229 0 323 23 397 96 40 40 61 86 79 169 17 80 19 542 4 874
-10 230 -14 259 -35 306 -66 150 -148 185 -433 185 -161 0 -180 -2 -195 -19z
m394 -209 c16 -16 33 -46 39 -68 6 -24 11 -230 12 -543 1 -480 0 -504 -18
-529 -29 -38 -81 -62 -138 -62 -27 0 -56 4 -64 9 -20 13 -31 1182 -11 1206 9
11 32 15 82 15 63 0 72 -3 98 -28z"/>
</g>
</svg>
